<?xml version="1.0" encoding="UTF-8"?>
<svg id="Capa_2" data-name="Capa 2" xmlns="http://www.w3.org/2000/svg" viewBox="0 0 348.16 348.03">
  <defs>
    <style>
      .cls-1 {
        fill: #fff;
      }
    </style>
  </defs>
  <g id="Capa_1-2" data-name="Capa 1">
    <path class="cls-1" d="m173.83,348.02C78.43,348.58-.19,269.78,0,173.65.19,78.24,78.78-.42,175.09,0c94.58.41,173.54,78.61,173.07,174.9-.47,95.27-78.7,173.96-174.33,173.12ZM25.1,169.54c-.5,3.08.02,7.68.17,12.28.56,17.14,4.64,33.48,10.98,49.35,1.28,3.2,2.61,3.52,5.5,1.83,10.79-6.33,22.23-11.32,34.21-14.89,3.9-1.17,4.8-3.13,4.2-6.78-1.31-8-1.89-16.09-2.04-24.18-.32-17.07-.44-34.16,2.12-51.11.46-3.04-.45-4.75-3.66-5.72-12.21-3.69-23.91-8.67-34.92-15.14-3.06-1.8-4.22-1.01-5.43,1.99-6.57,16.33-10.55,33.2-11.13,52.38Zm298.01,1.1c-.63-20.42-4.61-37.42-11.32-53.84-1.11-2.71-2.22-3.37-4.94-1.78-11.12,6.51-22.88,11.67-35.22,15.37-3.21.96-4.04,2.58-3.65,5.68,3.17,25.34,3.17,50.69.01,76.03-.38,3.05.32,4.75,3.57,5.73,11.97,3.63,23.38,8.62,34.28,14.75,4.4,2.47,4.46,2.5,6.34-2.14,8.11-20.04,11.85-40.83,10.93-59.8Zm-161.26,3.37c0-8.72-.07-17.44.04-26.16.03-2.55-.83-3.43-3.42-3.59-7.81-.48-15.61-1.23-23.41-1.93-9.17-.82-18.24-2.39-27.29-4.04-1.56-.28-2.91-.71-3.09,1.73-.36,5.08-1.17,10.14-1.4,15.22-.8,17.42-.68,34.82,1.34,52.17.3,2.56.95,3.03,3.45,2.56,9.16-1.73,18.37-3.14,27.66-4.08,7.18-.72,14.36-1.37,21.58-1.51,3.3-.06,4.76-1.31,4.64-4.98-.28-8.46-.09-16.94-.09-25.41Zm24.48.06c0,8.48.16,16.96-.08,25.42-.1,3.4,1.06,4.65,4.35,4.82,6.95.35,13.9.88,20.84,1.46,9.8.81,19.5,2.39,29.17,4.12,1.76.31,2.76.24,2.9-2,.32-4.96,1.17-9.9,1.36-14.86.67-17.05.73-34.08-1.2-51.09-.39-3.4-1.15-4.18-4.41-3.51-16.36,3.37-32.95,4.95-49.61,5.84-2.64.14-3.4,1.12-3.37,3.62.1,8.72.04,17.45.04,26.17Zm0,100.8c0,14.09.05,28.18-.04,42.27-.02,3.14.85,3.76,3.66,2.3,6.97-3.63,12.84-8.59,17.84-14.58,16.33-19.55,24.61-42.78,30.52-67.09.57-2.32-.26-3.12-2.39-3.52-15.07-2.83-30.31-4.18-45.59-5.28-3.12-.22-4.09.89-4.06,4,.14,13.96.06,27.93.06,41.9Zm-24.48-201.07c0-13.96,0-27.92,0-41.88,0-4.54-.44-4.79-4.56-2.58-6.57,3.53-12.13,8.29-16.88,14-16.29,19.57-24.6,42.77-30.52,67.07-.54,2.22.08,3.15,2.32,3.57,14.94,2.81,30.05,4.2,45.19,5.27,3.34.24,4.58-.72,4.53-4.3-.2-13.71-.08-27.42-.08-41.13Zm24.47-.36c0,13.83.12,27.67-.08,41.5-.05,3.59,1.21,4.69,4.53,4.29,2.71-.33,5.45-.56,8.18-.68,12.45-.58,24.72-2.61,36.99-4.65,2.08-.35,2.91-1.2,2.35-3.53-5.41-22.45-13.1-43.91-27.05-62.67-5.64-7.58-12.27-14.09-20.72-18.53-3.72-1.96-4.2-1.68-4.2,2.41-.01,13.96,0,27.91,0,41.87Zm-24.48,201.28c0-13.96-.09-27.92.07-41.88.04-3.27-1.21-4.21-4.18-3.84-2.35.29-4.7.54-7.06.65-12.83.59-25.49,2.52-38.13,4.65-2.52.43-3.22,1.46-2.6,4.03,4.87,19.97,11.55,39.19,22.92,56.5,6.57,10.01,14.33,18.86,25.2,24.45,3.45,1.77,3.76,1.58,3.77-2.3.02-14.09,0-28.17,0-42.26ZM235.76,38.57c12.74,20.46,21.72,42.23,26.88,65.57.55,2.48,1.91,2.39,3.89,1.76,9.67-3.07,18.76-7.43,27.65-12.26,4.13-2.24,4.1-2.28,1.25-6.25-10.56-14.75-23.33-27.25-38.37-37.39-6.68-4.51-13.62-8.61-21.3-11.44Zm-122.83,271.79c-.57-1.27-.72-1.73-.97-2.12-12.54-19.77-21.42-41.06-26.42-63.94-.59-2.69-1.95-2.64-4.08-1.93-9.85,3.29-19.22,7.61-28.32,12.59-2.72,1.49-2.78,2.73-1.05,5.12,7.57,10.46,16.08,20.03,25.98,28.32,10.36,8.68,21.62,15.98,34.86,21.97Zm122.02-.15c4.83-1.54,8.2-3.65,11.65-5.58,19.89-11.12,36.38-26.02,49.58-44.6,1.7-2.39,1.32-3.4-1.11-4.78-8.92-5.05-18.24-9.15-27.87-12.61-2.78-1-4.16-.7-4.85,2.65-2.04,9.88-5.13,19.48-8.8,28.89-4.81,12.33-10.95,23.98-18.6,36.02ZM112.66,38.64c-1.25-.44-1.98.18-2.7.53-23.67,11.59-43.1,28.15-58.25,49.74-1.43,2.03-.93,2.96.98,4.03,9.18,5.09,18.64,9.52,28.6,12.89,2.88.97,3.87.32,4.53-2.66,4.23-18.98,11-37.01,20.65-53.92,2.01-3.53,4.1-7.02,6.2-10.6Z"/>
  </g>
</svg>