<svg width="212" height="45" viewBox="0 0 212 45" fill="none" xmlns="http://www.w3.org/2000/svg">
<path d="M57.6905 23.0337L54.149 16.6057H53.1545V23.0337H49.0066V6.00546H55.9683C57.3105 6.00546 58.4506 6.23994 59.3885 6.70891C60.3426 7.17787 61.0541 7.82472 61.5231 8.64945C61.992 9.458 62.2265 10.3636 62.2265 11.3662C62.2265 12.4982 61.9031 13.5089 61.2563 14.3983C60.6256 15.2877 59.6877 15.9184 58.4425 16.2903L62.3721 23.0337H57.6905ZM53.1545 13.6706H55.7257C56.4858 13.6706 57.0518 13.4846 57.4237 13.1127C57.8118 12.7407 58.0059 12.2152 58.0059 11.536C58.0059 10.8892 57.8118 10.3798 57.4237 10.0078C57.0518 9.63589 56.4858 9.44992 55.7257 9.44992H53.1545V13.6706ZM72.8836 23.2035C71.2826 23.2035 69.8111 22.8316 68.4688 22.0877C67.1428 21.3438 66.0836 20.3089 65.2912 18.9828C64.515 17.6406 64.1269 16.1367 64.1269 14.4711C64.1269 12.8054 64.515 11.3096 65.2912 9.98357C66.0836 8.65753 67.1428 7.62258 68.4688 6.8787C69.8111 6.13483 71.2826 5.76289 72.8836 5.76289C74.4845 5.76289 75.948 6.13483 77.274 6.8787C78.6162 7.62258 79.6674 8.65753 80.4274 9.98357C81.2036 11.3096 81.5917 12.8054 81.5917 14.4711C81.5917 16.1367 81.2036 17.6406 80.4274 18.9828C79.6512 20.3089 78.6001 21.3438 77.274 22.0877C75.948 22.8316 74.4845 23.2035 72.8836 23.2035ZM72.8836 19.4194C74.2419 19.4194 75.3254 18.9666 76.134 18.0611C76.9587 17.1555 77.3711 15.9588 77.3711 14.4711C77.3711 12.9671 76.9587 11.7705 76.134 10.8811C75.3254 9.97548 74.2419 9.52269 72.8836 9.52269C71.509 9.52269 70.4094 9.96739 69.5847 10.8568C68.7761 11.7462 68.3718 12.951 68.3718 14.4711C68.3718 15.975 68.7761 17.1797 69.5847 18.0853C70.4094 18.9747 71.509 19.4194 72.8836 19.4194ZM87.9745 6.00546V16.1933C87.9745 17.2121 88.2251 17.9964 88.7264 18.5462C89.2277 19.096 89.9635 19.3709 90.9338 19.3709C91.9041 19.3709 92.6479 19.096 93.1654 18.5462C93.6829 17.9964 93.9416 17.2121 93.9416 16.1933V6.00546H98.0895V16.169C98.0895 17.6891 97.7661 18.9747 97.1193 20.0259C96.4724 21.077 95.5992 21.8694 94.4995 22.403C93.4161 22.9367 92.2032 23.2035 90.861 23.2035C89.5188 23.2035 88.3141 22.9448 87.2468 22.4273C86.1957 21.8936 85.3628 21.1012 84.7483 20.0501C84.1338 18.9828 83.8266 17.6891 83.8266 16.169V6.00546H87.9745ZM116.235 23.0337H112.088L105.15 12.5305V23.0337H101.002V6.00546H105.15L112.088 16.5571V6.00546H116.235V23.0337ZM125.622 6.00546C127.417 6.00546 128.985 6.36123 130.328 7.07276C131.67 7.78429 132.705 8.7869 133.432 10.0806C134.176 11.3581 134.548 12.8378 134.548 14.5196C134.548 16.1852 134.176 17.6649 133.432 18.9586C132.705 20.2523 131.662 21.2549 130.303 21.9664C128.961 22.6779 127.401 23.0337 125.622 23.0337H119.242V6.00546H125.622ZM125.355 19.4437C126.923 19.4437 128.144 19.0152 129.018 18.1581C129.891 17.301 130.328 16.0882 130.328 14.5196C130.328 12.951 129.891 11.7301 129.018 10.8568C128.144 9.98357 126.923 9.54694 125.355 9.54694H123.39V19.4437H125.355ZM150.69 23.0337L147.149 16.6057H146.154V23.0337H142.007V6.00546H148.968C150.31 6.00546 151.451 6.23994 152.388 6.70891C153.343 7.17787 154.054 7.82472 154.523 8.64945C154.992 9.458 155.226 10.3636 155.226 11.3662C155.226 12.4982 154.903 13.5089 154.256 14.3983C153.626 15.2877 152.688 15.9184 151.442 16.2903L155.372 23.0337H150.69ZM146.154 13.6706H148.726C149.486 13.6706 150.052 13.4846 150.424 13.1127C150.812 12.7407 151.006 12.2152 151.006 11.536C151.006 10.8892 150.812 10.3798 150.424 10.0078C150.052 9.63589 149.486 9.44992 148.726 9.44992H146.154V13.6706ZM165.884 23.2035C164.283 23.2035 162.811 22.8316 161.469 22.0877C160.143 21.3438 159.084 20.3089 158.291 18.9828C157.515 17.6406 157.127 16.1367 157.127 14.4711C157.127 12.8054 157.515 11.3096 158.291 9.98357C159.084 8.65753 160.143 7.62258 161.469 6.8787C162.811 6.13483 164.283 5.76289 165.884 5.76289C167.484 5.76289 168.948 6.13483 170.274 6.8787C171.616 7.62258 172.667 8.65753 173.427 9.98357C174.204 11.3096 174.592 12.8054 174.592 14.4711C174.592 16.1367 174.204 17.6406 173.427 18.9828C172.651 20.3089 171.6 21.3438 170.274 22.0877C168.948 22.8316 167.484 23.2035 165.884 23.2035ZM165.884 19.4194C167.242 19.4194 168.325 18.9666 169.134 18.0611C169.959 17.1555 170.371 15.9588 170.371 14.4711C170.371 12.9671 169.959 11.7705 169.134 10.8811C168.325 9.97548 167.242 9.52269 165.884 9.52269C164.509 9.52269 163.409 9.96739 162.585 10.8568C161.776 11.7462 161.372 12.951 161.372 14.4711C161.372 15.975 161.776 17.1797 162.585 18.0853C163.409 18.9747 164.509 19.4194 165.884 19.4194ZM176.196 14.4953C176.196 12.8135 176.56 11.3177 177.287 10.0078C178.015 8.68179 179.026 7.65492 180.32 6.92722C181.629 6.18334 183.109 5.81141 184.758 5.81141C186.78 5.81141 188.51 6.34506 189.949 7.41235C191.389 8.47965 192.351 9.93505 192.836 11.7786H188.276C187.936 11.067 187.451 10.5253 186.82 10.1534C186.206 9.78143 185.502 9.59546 184.71 9.59546C183.432 9.59546 182.397 10.0402 181.605 10.9296C180.813 11.819 180.417 13.0076 180.417 14.4953C180.417 15.9831 180.813 17.1716 181.605 18.0611C182.397 18.9505 183.432 19.3952 184.71 19.3952C185.502 19.3952 186.206 19.2092 186.82 18.8373C187.451 18.4653 187.936 17.9236 188.276 17.2121H192.836C192.351 19.0556 191.389 20.511 189.949 21.5783C188.51 22.6294 186.78 23.155 184.758 23.155C183.109 23.155 181.629 22.7911 180.32 22.0634C179.026 21.3195 178.015 20.2927 177.287 18.9828C176.56 17.673 176.196 16.1771 176.196 14.4953ZM205.249 23.0337L199.524 15.5141V23.0337H195.376V6.00546H199.524V13.4765L205.2 6.00546H210.076L203.478 14.3498L210.318 23.0337H205.249ZM57.1569 32.3362C57.1569 32.9938 57.0059 33.5976 56.7041 34.1474C56.4022 34.6864 55.9386 35.123 55.3134 35.4573C54.6881 35.7915 53.9119 35.9586 52.9847 35.9586H51.2706V40.0337H48.5053V28.6815H52.9847C53.8903 28.6815 54.6557 28.8379 55.281 29.1505C55.9063 29.4631 56.3753 29.8944 56.6879 30.4442C57.0005 30.994 57.1569 31.6247 57.1569 32.3362ZM52.7745 33.7593C53.3027 33.7593 53.6962 33.6353 53.955 33.3873C54.2137 33.1394 54.3431 32.789 54.3431 32.3362C54.3431 31.8834 54.2137 31.5331 53.955 31.2851C53.6962 31.0371 53.3027 30.9132 52.7745 30.9132H51.2706V33.7593H52.7745ZM72.6816 37.8991H76.3039V40.0337H69.9163V28.6815H72.6816V37.8991ZM91.6594 28.6815V35.4734C91.6594 36.1526 91.8265 36.6755 92.1607 37.042C92.4949 37.4086 92.9855 37.5918 93.6323 37.5918C94.2792 37.5918 94.7751 37.4086 95.1201 37.042C95.465 36.6755 95.6375 36.1526 95.6375 35.4734V28.6815H98.4028V35.4573C98.4028 36.4706 98.1872 37.3277 97.7559 38.0285C97.3247 38.7292 96.7426 39.2575 96.0095 39.6132C95.2872 39.969 94.4786 40.1469 93.5838 40.1469C92.689 40.1469 91.8858 39.9744 91.1743 39.6294C90.4735 39.2736 89.9183 38.7454 89.5087 38.0446C89.099 37.3331 88.8942 36.4706 88.8942 35.4573V28.6815H91.6594ZM124.52 28.6815V40.0337H121.755V33.2256L119.216 40.0337H116.985L114.43 33.2095V40.0337H111.664V28.6815H114.931L118.117 36.5407L121.27 28.6815H124.52ZM144.702 34.2121C145.359 34.3522 145.887 34.681 146.286 35.1985C146.685 35.7052 146.885 36.2874 146.885 36.945C146.885 37.8937 146.55 38.6484 145.882 39.209C145.224 39.7588 144.303 40.0337 143.117 40.0337H137.829V28.6815H142.939C144.092 28.6815 144.993 28.9457 145.64 29.4739C146.297 30.0022 146.626 30.7191 146.626 31.6247C146.626 32.2931 146.448 32.8483 146.092 33.2903C145.747 33.7323 145.284 34.0396 144.702 34.2121ZM140.594 33.2741H142.405C142.858 33.2741 143.203 33.1771 143.44 32.9831C143.688 32.7782 143.812 32.4818 143.812 32.0937C143.812 31.7055 143.688 31.4091 143.44 31.2042C143.203 30.9994 142.858 30.897 142.405 30.897H140.594V33.2741ZM142.632 37.8021C143.095 37.8021 143.451 37.6997 143.699 37.4948C143.958 37.2792 144.087 36.972 144.087 36.5731C144.087 36.1742 143.952 35.8615 143.683 35.6351C143.424 35.4087 143.063 35.2955 142.599 35.2955H140.594V37.8021H142.632ZM162.574 28.6815V40.0337H159.808V28.6815H162.574ZM186.053 40.0337H183.288L178.663 33.0316V40.0337H175.897V28.6815H178.663L183.288 35.716V28.6815H186.053V40.0337ZM206.913 32.2715C206.708 31.8942 206.412 31.6085 206.024 31.4145C205.646 31.2096 205.199 31.1072 204.681 31.1072C203.786 31.1072 203.07 31.4037 202.531 31.9966C201.991 32.5788 201.722 33.3604 201.722 34.3414C201.722 35.3872 202.002 36.2065 202.563 36.7995C203.134 37.3816 203.916 37.6727 204.908 37.6727C205.587 37.6727 206.158 37.5002 206.622 37.1552C207.096 36.8102 207.441 36.3143 207.657 35.6675H204.148V33.6299H210.163V36.2011C209.958 36.8911 209.608 37.5326 209.112 38.1255C208.627 38.7184 208.007 39.1982 207.253 39.5647C206.498 39.9313 205.646 40.1145 204.697 40.1145C203.576 40.1145 202.574 39.872 201.69 39.3868C200.816 38.8909 200.132 38.2064 199.636 37.3331C199.151 36.4599 198.908 35.4626 198.908 34.3414C198.908 33.2202 199.151 32.223 199.636 31.3498C200.132 30.4658 200.816 29.7812 201.69 29.296C202.563 28.8001 203.56 28.5522 204.681 28.5522C206.04 28.5522 207.182 28.881 208.11 29.5386C209.048 30.1962 209.667 31.1072 209.969 32.2715H206.913Z" fill="#19435A"/>
<g clip-path="url(#clip0_556_101420)">
<path d="M1.54416 8.25846H3.06499V9.77703C3.06543 10.186 3.22835 10.5782 3.51799 10.8674C3.80764 11.1566 4.20036 11.3193 4.60998 11.3197H6.20744C6.61706 11.3193 7.00978 11.1566 7.29942 10.8674C7.58907 10.5782 7.75199 10.186 7.75243 9.77703V8.25846H9.27326C9.68282 8.2578 10.0754 8.09505 10.365 7.80589C10.6546 7.51672 10.8176 7.12471 10.8183 6.71577V5.12069C10.8176 4.71175 10.6546 4.31974 10.365 4.03057C10.0754 3.74141 9.68282 3.57866 9.27326 3.578H7.75243V2.06026C7.75199 1.65125 7.58907 1.25912 7.29942 0.969907C7.00978 0.680692 6.61706 0.518018 6.20744 0.517578L4.60998 0.517578C4.20036 0.518018 3.80764 0.680692 3.51799 0.969907C3.22835 1.25912 3.06543 1.65125 3.06499 2.06026V3.578H1.54416C1.13468 3.57866 0.742175 3.74143 0.452709 4.03062C0.163243 4.31982 0.000440475 4.71182 0 5.12069V6.71577C0.000440475 7.12464 0.163243 7.51664 0.452709 7.80583C0.742175 8.09503 1.13468 8.2578 1.54416 8.25846ZM1.18019 5.12069C1.18063 5.02459 1.21917 4.93258 1.28738 4.86478C1.35559 4.79699 1.44791 4.75893 1.54416 4.75893H4.24768V2.06026C4.24768 1.9638 4.286 1.87128 4.35423 1.80299C4.42246 1.7347 4.51504 1.69623 4.61164 1.69601H6.20744C6.30405 1.69623 6.39662 1.7347 6.46485 1.80299C6.53309 1.87128 6.57141 1.9638 6.57141 2.06026V4.75893H9.27326C9.32106 4.75893 9.36839 4.76833 9.41255 4.78659C9.45671 4.80486 9.49683 4.83162 9.53063 4.86537C9.56442 4.89912 9.59123 4.93918 9.60952 4.98328C9.62782 5.02737 9.63723 5.07463 9.63723 5.12235V6.71577C9.63723 6.81223 9.59891 6.90476 9.53068 6.97304C9.46244 7.04133 9.36987 7.07981 9.27326 7.08003H6.57141V9.77703C6.57141 9.82475 6.56199 9.87201 6.5437 9.9161C6.52541 9.9602 6.4986 10.0003 6.4648 10.034C6.43101 10.0678 6.39088 10.0945 6.34672 10.1128C6.30256 10.1311 6.25524 10.1405 6.20744 10.1405H4.60998C4.51374 10.14 4.42159 10.1015 4.35369 10.0334C4.28579 9.96531 4.24768 9.87313 4.24768 9.77703V7.08003H1.54416C1.44755 7.07981 1.35497 7.04133 1.28674 6.97304C1.21851 6.90476 1.18019 6.81223 1.18019 6.71577V5.12069Z" fill="#19435A"/>
<path d="M40.428 18.9964L35.4099 16.894V18.7237C35.3829 18.7154 35.3548 18.7109 35.3266 18.7103H31.9584V14.8748C31.9582 14.5412 31.8254 14.2213 31.5891 13.9853C31.3528 13.7494 31.0324 13.6168 30.6983 13.6166H28.2396C27.9055 13.617 27.5853 13.7497 27.349 13.9856C27.1128 14.2215 26.9799 14.5413 26.9795 14.8748V14.8915H24.2851C21.6493 14.8945 19.1223 15.9414 17.2584 17.8025C15.3946 19.6636 14.3461 22.1868 14.343 24.8187V29.5823H14.3256C13.9915 29.5828 13.6712 29.7155 13.435 29.9514C13.1988 30.1872 13.0659 30.507 13.0654 30.8406V33.2648C13.0659 33.5984 13.1988 33.9182 13.435 34.1541C13.6712 34.39 13.9915 34.5227 14.3256 34.5231H14.3397V34.5555C14.3393 35.0045 14.1605 35.4349 13.8426 35.7523C13.5246 36.0698 13.0936 36.2483 12.644 36.2487H11.2281C10.7785 36.2483 10.3474 36.0698 10.0295 35.7523C9.71159 35.4349 9.53279 35.0045 9.53235 34.5555H9.54567C9.87975 34.5551 10.2 34.4224 10.4362 34.1865C10.6725 33.9506 10.8054 33.6308 10.8058 33.2973V30.8722C10.8054 30.5386 10.6725 30.2188 10.4362 29.983C10.2 29.7471 9.87975 29.6144 9.54567 29.6139H9.53235V18.2679H9.54567C9.87975 18.2675 10.2 18.1348 10.4362 17.8989C10.6725 17.663 10.8054 17.3432 10.8058 17.0096V14.5547C10.8056 14.221 10.6728 13.9011 10.4365 13.6652C10.2002 13.4292 9.87982 13.2966 9.54567 13.2964H1.27186C0.93772 13.2966 0.617325 13.4292 0.38105 13.6652C0.144775 13.9011 0.0119394 14.221 0.0117188 14.5547V17.0096C0.0121595 17.3432 0.145066 17.663 0.381293 17.8989C0.617521 18.1348 0.937787 18.2675 1.27186 18.2679H1.28519V29.6139H1.27186C0.937787 29.6144 0.617521 29.7471 0.381293 29.983C0.145066 30.2188 0.0121595 30.5386 0.0117188 30.8722V33.2964C0.0121595 33.63 0.145066 33.9498 0.381293 34.1857C0.617521 34.4216 0.937787 34.5543 1.27186 34.5547H1.28519C1.28806 37.1869 2.33653 39.7105 4.20056 41.5718C6.0646 43.433 8.59194 44.4799 11.2281 44.4828H12.644C15.2804 44.4806 17.8083 43.4341 19.6728 41.5729C21.5374 39.7118 22.5863 37.188 22.5894 34.5555V34.5231H22.6019C22.936 34.5229 23.2564 34.3902 23.4927 34.1543C23.729 33.9184 23.8618 33.5985 23.862 33.2648V30.8406C23.8618 30.507 23.729 30.187 23.4927 29.9511C23.2564 29.7152 22.936 29.5826 22.6019 29.5823H22.5894V24.8187C22.59 24.3699 22.7689 23.9396 23.0868 23.6222C23.4046 23.3048 23.8356 23.1262 24.2851 23.1255H26.9795V23.138C26.9793 23.1917 26.9829 23.2453 26.9903 23.2985C27.0295 23.6017 27.178 23.8804 27.4078 24.0824C27.6377 24.2844 27.9334 24.3959 28.2396 24.3963H30.6983C31.0324 24.396 31.3528 24.2634 31.5891 24.0275C31.8254 23.7915 31.9582 23.4716 31.9584 23.138V19.3033H35.3224C35.3507 19.3027 35.3787 19.2983 35.4057 19.29V21.0988L40.428 18.9964ZM15.5249 24.8179C15.5275 22.4987 16.4513 20.2751 18.0935 18.635C19.7358 16.9949 21.9624 16.0721 24.2851 16.0691H26.9795V18.7137H24.2851C22.6641 18.7154 21.1099 19.3592 19.9637 20.5037C18.8175 21.6483 18.1727 23.2001 18.171 24.8187V29.5823H15.5232L15.5249 24.8179ZM11.2281 37.4272H12.644C13.4065 37.4263 14.1374 37.1235 14.6766 36.5851C15.2157 36.0468 15.519 35.3169 15.5199 34.5555V34.5231H18.1676V34.5555C18.1661 36.0178 17.5836 37.4198 16.5481 38.4538C15.5125 39.4878 14.1085 40.0694 12.644 40.071H11.2281C9.76352 40.0694 8.35937 39.4879 7.32369 38.4539C6.288 37.4199 5.70537 36.0179 5.70361 34.5555H8.35133C8.35221 35.317 8.6556 36.047 9.19493 36.5854C9.73426 37.1238 10.4655 37.4265 11.2281 37.4272ZM8.35133 29.6139H5.70361V18.2679H8.35133V29.6139ZM1.19274 17.0096V14.5547C1.19271 14.5333 1.20091 14.5128 1.21564 14.4973C1.23037 14.4818 1.2505 14.4726 1.27186 14.4715H9.54567C9.56776 14.4715 9.58895 14.4803 9.60457 14.4958C9.62018 14.5114 9.62896 14.5326 9.62896 14.5547V17.0096C9.62789 17.031 9.61865 17.0511 9.60314 17.0658C9.58764 17.0805 9.56706 17.0887 9.54567 17.0887H1.27186C1.2512 17.0876 1.23166 17.079 1.21703 17.0644C1.20241 17.0498 1.19375 17.0303 1.19274 17.0096ZM2.46621 18.2679H5.11393V29.6139H2.46621V18.2679ZM1.27186 33.3754C1.2505 33.3744 1.23037 33.3651 1.21564 33.3497C1.20091 33.3342 1.19271 33.3136 1.19274 33.2923V30.8722C1.19375 30.8516 1.20241 30.8321 1.21703 30.8175C1.23166 30.8029 1.2512 30.7942 1.27186 30.7932H9.54567C9.56706 30.7932 9.58764 30.8014 9.60314 30.8161C9.61865 30.8308 9.62789 30.8509 9.62896 30.8722V33.2964C9.62896 33.3185 9.62018 33.3396 9.60457 33.3552C9.58895 33.3708 9.56776 33.3796 9.54567 33.3796H1.27186V33.3754ZM21.4092 34.5555C21.4065 36.8751 20.4826 39.0988 18.84 40.739C17.1974 42.3791 14.9703 43.3017 12.6473 43.3044H11.2314C8.90844 43.3017 6.68135 42.3791 5.03876 40.739C3.39616 39.0988 2.47219 36.8751 2.46954 34.5555H5.11393C5.11569 36.1742 5.76043 37.726 6.90667 38.8705C8.05292 40.0151 9.60705 40.6588 11.2281 40.6606H12.644C14.265 40.6588 15.8191 40.0151 16.9654 38.8705C18.1116 37.726 18.7564 36.1742 18.7581 34.5555V34.5231H21.4059L21.4092 34.5555ZM22.6019 30.7616C22.6233 30.7616 22.6438 30.7698 22.6593 30.7845C22.6748 30.7992 22.6841 30.8193 22.6852 30.8406V33.2648C22.6852 33.2869 22.6764 33.308 22.6608 33.3236C22.6451 33.3392 22.624 33.348 22.6019 33.348H14.3256C14.3042 33.3469 14.2841 33.3377 14.2693 33.3222C14.2546 33.3067 14.2464 33.2862 14.2464 33.2648V30.8406C14.2474 30.82 14.2561 30.8005 14.2707 30.7859C14.2854 30.7713 14.3049 30.7626 14.3256 30.7616H22.5985H22.6019ZM24.2851 21.9462C23.5226 21.9471 22.7916 22.25 22.2525 22.7883C21.7133 23.3267 21.4101 24.0566 21.4092 24.8179V29.5815H18.7615V24.8187C18.763 23.3564 19.3455 21.9544 20.381 20.9204C21.4166 19.8864 22.8206 19.3048 24.2851 19.3033H26.9795V21.9471L24.2851 21.9462ZM30.7816 23.1347C30.7816 23.1567 30.7728 23.1779 30.7572 23.1935C30.7415 23.2091 30.7204 23.2178 30.6983 23.2178H28.2396C28.2183 23.2168 28.1981 23.2075 28.1834 23.192C28.1687 23.1766 28.1605 23.156 28.1605 23.1347V14.8748C28.1615 14.8542 28.1702 14.8347 28.1848 14.8201C28.1994 14.8055 28.219 14.7968 28.2396 14.7958H30.6983C30.7197 14.7958 30.7402 14.804 30.7557 14.8187C30.7712 14.8334 30.7805 14.8535 30.7816 14.8748V23.138V23.1347ZM36.5934 18.6663L37.3796 18.9989L36.5934 19.3316V18.6663Z" fill="#19435A"/>
<path d="M5.40885 16.4019C5.44764 16.4019 5.48605 16.3943 5.52188 16.3794C5.5577 16.3646 5.59024 16.3428 5.61763 16.3154C5.64502 16.288 5.66672 16.2554 5.68149 16.2196C5.69626 16.1838 5.7038 16.1454 5.70369 16.1067V15.4638C5.70369 15.3858 5.67263 15.3109 5.61734 15.2557C5.56204 15.2005 5.48705 15.1694 5.40885 15.1694C5.33066 15.1694 5.25566 15.2005 5.20037 15.2557C5.14508 15.3109 5.11401 15.3858 5.11401 15.4638V16.1067C5.11391 16.1454 5.12145 16.1838 5.13622 16.2196C5.15099 16.2554 5.17269 16.288 5.20008 16.3154C5.22747 16.3428 5.26001 16.3646 5.29583 16.3794C5.33166 16.3943 5.37007 16.4019 5.40885 16.4019Z" fill="#19435A"/>
<path d="M3.03497 16.4016C3.07415 16.4018 3.11296 16.3941 3.14915 16.3791C3.18534 16.3641 3.21818 16.3421 3.24577 16.3143C3.27336 16.2865 3.29514 16.2535 3.30986 16.2173C3.32457 16.181 3.33192 16.1422 3.33148 16.1031V15.4602C3.32746 15.3847 3.2946 15.3137 3.23967 15.2617C3.18474 15.2097 3.11192 15.1807 3.03622 15.1807C2.96052 15.1807 2.8877 15.2097 2.83277 15.2617C2.77784 15.3137 2.74498 15.3847 2.74097 15.4602V16.1031C2.741 16.1795 2.77088 16.2529 2.82425 16.3077C2.8513 16.3366 2.88389 16.3598 2.92008 16.376C2.95627 16.3921 2.99534 16.4008 3.03497 16.4016Z" fill="#19435A"/>
<path d="M7.78255 16.4016C7.82261 16.4012 7.86215 16.3926 7.89879 16.3765C7.93544 16.3603 7.96843 16.3369 7.99577 16.3077C8.04914 16.2529 8.07902 16.1795 8.07906 16.1031V15.4602C8.07504 15.3847 8.04218 15.3137 7.98725 15.2617C7.93232 15.2097 7.8595 15.1807 7.7838 15.1807C7.7081 15.1807 7.63528 15.2097 7.58035 15.2617C7.52542 15.3137 7.49256 15.3847 7.48854 15.4602V16.1031C7.4881 16.142 7.49537 16.1806 7.50993 16.2167C7.52449 16.2528 7.54605 16.2857 7.57337 16.3134C7.60069 16.3412 7.63324 16.3632 7.66914 16.3784C7.70504 16.3935 7.74358 16.4014 7.78255 16.4016Z" fill="#19435A"/>
<path d="M5.40885 32.6687C5.4476 32.6688 5.48599 32.6612 5.52181 32.6465C5.55763 32.6317 5.59018 32.61 5.61758 32.5827C5.64498 32.5553 5.6667 32.5228 5.68147 32.4871C5.69625 32.4513 5.7038 32.413 5.70369 32.3743V31.7314C5.70369 31.6533 5.67263 31.5784 5.61734 31.5232C5.56204 31.468 5.48705 31.437 5.40885 31.437C5.33066 31.437 5.25566 31.468 5.20037 31.5232C5.14508 31.5784 5.11401 31.6533 5.11401 31.7314V32.3743C5.1139 32.413 5.12146 32.4513 5.13623 32.4871C5.15101 32.5228 5.17273 32.5553 5.20013 32.5827C5.22753 32.61 5.26007 32.6317 5.29589 32.6465C5.33172 32.6612 5.3701 32.6688 5.40885 32.6687Z" fill="#19435A"/>
<path d="M3.03497 32.6685C3.07383 32.6687 3.11235 32.6612 3.14831 32.6465C3.18428 32.6319 3.21698 32.6102 3.24453 32.5828C3.27209 32.5555 3.29395 32.523 3.30888 32.4871C3.3238 32.4513 3.33148 32.4129 3.33148 32.3741V31.7312C3.32746 31.6557 3.2946 31.5847 3.23967 31.5327C3.18474 31.4807 3.11192 31.4517 3.03622 31.4517C2.96052 31.4517 2.8877 31.4807 2.83277 31.5327C2.77784 31.5847 2.74498 31.6557 2.74097 31.7312V32.3741C2.74097 32.452 2.77192 32.5268 2.82703 32.582C2.88214 32.6371 2.95692 32.6683 3.03497 32.6685Z" fill="#19435A"/>
<path d="M7.78253 32.6685C7.82139 32.6687 7.85991 32.6612 7.89587 32.6465C7.93184 32.6319 7.96454 32.6102 7.99209 32.5828C8.01965 32.5555 8.04151 32.523 8.05643 32.4871C8.07136 32.4513 8.07904 32.4129 8.07904 32.3741V31.7312C8.07502 31.6557 8.04216 31.5847 7.98723 31.5327C7.9323 31.4807 7.85948 31.4517 7.78378 31.4517C7.70808 31.4517 7.63526 31.4807 7.58033 31.5327C7.5254 31.5847 7.49254 31.6557 7.48853 31.7312V32.3741C7.48853 32.452 7.51947 32.5268 7.57459 32.582C7.6297 32.6371 7.70448 32.6683 7.78253 32.6685Z" fill="#19435A"/>
<path d="M18.4658 31.437C18.3901 31.4367 18.3172 31.4656 18.2622 31.5177C18.2073 31.5697 18.1746 31.6409 18.171 31.7164C18.1706 31.7214 18.1706 31.7264 18.171 31.7314V32.3743C18.1706 32.3792 18.1706 32.3843 18.171 32.3892C18.173 32.4673 18.2059 32.5414 18.2626 32.5952C18.3193 32.649 18.3951 32.6781 18.4733 32.6761C18.5515 32.6742 18.6257 32.6412 18.6796 32.5846C18.7335 32.528 18.7626 32.4523 18.7606 32.3743V31.7314C18.7606 31.6927 18.753 31.6545 18.7382 31.6188C18.7234 31.583 18.7017 31.5506 18.6743 31.5232C18.6469 31.4959 18.6144 31.4742 18.5786 31.4594C18.5429 31.4446 18.5045 31.437 18.4658 31.437Z" fill="#19435A"/>
<path d="M16.0912 31.437C16.0525 31.437 16.0142 31.4446 15.9784 31.4594C15.9426 31.4742 15.9101 31.4959 15.8827 31.5232C15.8554 31.5506 15.8336 31.583 15.8188 31.6188C15.804 31.6545 15.7964 31.6928 15.7964 31.7314V32.3743C15.8004 32.4498 15.8333 32.5208 15.8882 32.5728C15.9431 32.6248 16.0159 32.6538 16.0916 32.6538C16.1673 32.6538 16.2402 32.6248 16.2951 32.5728C16.35 32.5208 16.3829 32.4498 16.3869 32.3743V31.7314C16.3869 31.6927 16.3792 31.6543 16.3644 31.6186C16.3495 31.5828 16.3277 31.5503 16.3002 31.5229C16.2728 31.4956 16.2402 31.4739 16.2043 31.4592C16.1684 31.4444 16.13 31.4369 16.0912 31.437Z" fill="#19435A"/>
<path d="M20.8395 31.437C20.8008 31.437 20.7625 31.4446 20.7267 31.4594C20.6909 31.4742 20.6584 31.4959 20.631 31.5232C20.6037 31.5506 20.5819 31.583 20.5671 31.6188C20.5523 31.6545 20.5447 31.6928 20.5447 31.7314V32.3743C20.5487 32.4498 20.5816 32.5208 20.6365 32.5728C20.6914 32.6248 20.7642 32.6538 20.8399 32.6538C20.9156 32.6538 20.9884 32.6248 21.0434 32.5728C21.0983 32.5208 21.1312 32.4498 21.1352 32.3743V31.7314C21.1352 31.6927 21.1275 31.6543 21.1127 31.6186C21.0978 31.5828 21.076 31.5503 21.0485 31.5229C21.0211 31.4956 20.9885 31.4739 20.9526 31.4592C20.9167 31.4444 20.8783 31.4369 20.8395 31.437Z" fill="#19435A"/>
<path d="M29.8329 18.7138C29.8191 18.7126 29.8051 18.7126 29.7913 18.7138H29.1508C29.1369 18.7126 29.123 18.7126 29.1092 18.7138C29.0392 18.7283 28.9769 18.7676 28.9338 18.8245C28.8906 18.8814 28.8697 18.952 28.8748 19.0231C28.8799 19.0943 28.9107 19.1612 28.9614 19.2113C29.0122 19.2615 29.0795 19.2916 29.1508 19.296H29.7946C29.8659 19.2916 29.9332 19.2615 29.984 19.2113C30.0348 19.1612 30.0655 19.0943 30.0706 19.0231C30.0757 18.952 30.0548 18.8814 30.0117 18.8245C29.9685 18.7676 29.9062 18.7283 29.8363 18.7138H29.8329Z" fill="#19435A"/>
<path d="M29.9061 21.1038C29.8698 21.0883 29.8307 21.0804 29.7912 21.0805H29.1507C29.1106 21.0784 29.0705 21.0844 29.0328 21.0983C28.9952 21.1121 28.9607 21.1335 28.9316 21.1611C28.9024 21.1887 28.8792 21.2219 28.8634 21.2587C28.8475 21.2956 28.8394 21.3352 28.8394 21.3753C28.8394 21.4154 28.8475 21.4551 28.8634 21.4919C28.8792 21.5287 28.9024 21.562 28.9316 21.5895C28.9607 21.6171 28.9952 21.6385 29.0328 21.6523C29.0705 21.6662 29.1106 21.6723 29.1507 21.6701H29.7945C29.8333 21.6701 29.8717 21.6625 29.9076 21.6476C29.9434 21.6328 29.9759 21.611 30.0033 21.5836C30.0307 21.5562 30.0524 21.5236 30.0672 21.4878C30.0819 21.452 30.0895 21.4136 30.0894 21.3749C30.0893 21.3467 30.0851 21.3187 30.0769 21.2917C30.0642 21.2497 30.0423 21.211 30.0128 21.1785C29.9832 21.146 29.9468 21.1205 29.9061 21.1038Z" fill="#19435A"/>
<path d="M29.7911 16.3396H29.1507C29.0985 16.3396 29.0472 16.3537 29.0024 16.3804C28.9582 16.4055 28.9214 16.4418 28.8955 16.4856C28.8697 16.5293 28.8557 16.579 28.855 16.6298C28.855 16.7081 28.8861 16.7832 28.9416 16.8386C28.997 16.894 29.0722 16.9251 29.1507 16.9251H29.7945C29.8701 16.9211 29.9412 16.8883 29.9933 16.8334C30.0454 16.7786 30.0744 16.7059 30.0744 16.6303C30.0744 16.5547 30.0454 16.482 29.9933 16.4271C29.9412 16.3723 29.8701 16.3395 29.7945 16.3354L29.7911 16.3396Z" fill="#19435A"/>
</g>
<defs>
<clipPath id="clip0_556_101420">
<rect width="40.4279" height="43.9653" fill="white" transform="translate(0 0.517578)"/>
</clipPath>
</defs>
</svg>
