<svg width="212" height="44" viewBox="0 0 212 44" fill="none" xmlns="http://www.w3.org/2000/svg">
<path d="M57.6905 22.5161L54.149 16.0881H53.1545V22.5161H49.0066V5.48788H55.9683C57.3105 5.48788 58.4506 5.72237 59.3885 6.19133C60.3426 6.66029 61.0541 7.30714 61.5231 8.13187C61.992 8.94043 62.2265 9.84601 62.2265 10.8486C62.2265 11.9806 61.9031 12.9913 61.2563 13.8807C60.6256 14.7701 59.6877 15.4008 58.4425 15.7727L62.3721 22.5161H57.6905ZM53.1545 13.153H55.7257C56.4858 13.153 57.0518 12.967 57.4237 12.5951C57.8118 12.2232 58.0059 11.6976 58.0059 11.0184C58.0059 10.3716 57.8118 9.86218 57.4237 9.49025C57.0518 9.11831 56.4858 8.93234 55.7257 8.93234H53.1545V13.153ZM72.8836 22.6859C71.2826 22.6859 69.8111 22.314 68.4688 21.5701C67.1428 20.8262 66.0836 19.7913 65.2912 18.4652C64.515 17.123 64.1269 15.6191 64.1269 13.9535C64.1269 12.2879 64.515 10.792 65.2912 9.46599C66.0836 8.13995 67.1428 7.105 68.4688 6.36113C69.8111 5.61725 71.2826 5.24532 72.8836 5.24532C74.4845 5.24532 75.948 5.61725 77.274 6.36113C78.6162 7.105 79.6674 8.13995 80.4274 9.46599C81.2036 10.792 81.5917 12.2879 81.5917 13.9535C81.5917 15.6191 81.2036 17.123 80.4274 18.4652C79.6512 19.7913 78.6001 20.8262 77.274 21.5701C75.948 22.314 74.4845 22.6859 72.8836 22.6859ZM72.8836 18.9019C74.2419 18.9019 75.3254 18.4491 76.134 17.5435C76.9587 16.6379 77.3711 15.4412 77.3711 13.9535C77.3711 12.4496 76.9587 11.2529 76.134 10.3635C75.3254 9.4579 74.2419 9.00511 72.8836 9.00511C71.509 9.00511 70.4094 9.44982 69.5847 10.3392C68.7761 11.2286 68.3718 12.4334 68.3718 13.9535C68.3718 15.4574 68.7761 16.6622 69.5847 17.5677C70.4094 18.4572 71.509 18.9019 72.8836 18.9019ZM87.9745 5.48788V15.6757C87.9745 16.6945 88.2251 17.4788 88.7264 18.0286C89.2277 18.5784 89.9635 18.8533 90.9338 18.8533C91.9041 18.8533 92.6479 18.5784 93.1654 18.0286C93.6829 17.4788 93.9416 16.6945 93.9416 15.6757V5.48788H98.0895V15.6515C98.0895 17.1715 97.7661 18.4572 97.1193 19.5083C96.4724 20.5594 95.5992 21.3518 94.4995 21.8854C93.4161 22.4191 92.2032 22.6859 90.861 22.6859C89.5188 22.6859 88.3141 22.4272 87.2468 21.9097C86.1957 21.376 85.3628 20.5837 84.7483 19.5325C84.1338 18.4652 83.8266 17.1715 83.8266 15.6515V5.48788H87.9745ZM116.235 22.5161H112.088L105.15 12.0129V22.5161H101.002V5.48788H105.15L112.088 16.0396V5.48788H116.235V22.5161ZM125.622 5.48788C127.417 5.48788 128.985 5.84365 130.328 6.55518C131.67 7.26671 132.705 8.26932 133.432 9.56301C134.176 10.8405 134.548 12.3202 134.548 14.002C134.548 15.6676 134.176 17.1473 133.432 18.441C132.705 19.7347 131.662 20.7373 130.303 21.4488C128.961 22.1603 127.401 22.5161 125.622 22.5161H119.242V5.48788H125.622ZM125.355 18.9261C126.923 18.9261 128.144 18.4976 129.018 17.6405C129.891 16.7834 130.328 15.5706 130.328 14.002C130.328 12.4334 129.891 11.2125 129.018 10.3392C128.144 9.46599 126.923 9.02937 125.355 9.02937H123.39V18.9261H125.355ZM150.69 22.5161L147.149 16.0881H146.154V22.5161H142.007V5.48788H148.968C150.31 5.48788 151.451 5.72237 152.388 6.19133C153.343 6.66029 154.054 7.30714 154.523 8.13187C154.992 8.94043 155.226 9.84601 155.226 10.8486C155.226 11.9806 154.903 12.9913 154.256 13.8807C153.626 14.7701 152.688 15.4008 151.442 15.7727L155.372 22.5161H150.69ZM146.154 13.153H148.726C149.486 13.153 150.052 12.967 150.424 12.5951C150.812 12.2232 151.006 11.6976 151.006 11.0184C151.006 10.3716 150.812 9.86218 150.424 9.49025C150.052 9.11831 149.486 8.93234 148.726 8.93234H146.154V13.153ZM165.884 22.6859C164.283 22.6859 162.811 22.314 161.469 21.5701C160.143 20.8262 159.084 19.7913 158.291 18.4652C157.515 17.123 157.127 15.6191 157.127 13.9535C157.127 12.2879 157.515 10.792 158.291 9.46599C159.084 8.13995 160.143 7.105 161.469 6.36113C162.811 5.61725 164.283 5.24532 165.884 5.24532C167.484 5.24532 168.948 5.61725 170.274 6.36113C171.616 7.105 172.667 8.13995 173.427 9.46599C174.204 10.792 174.592 12.2879 174.592 13.9535C174.592 15.6191 174.204 17.123 173.427 18.4652C172.651 19.7913 171.6 20.8262 170.274 21.5701C168.948 22.314 167.484 22.6859 165.884 22.6859ZM165.884 18.9019C167.242 18.9019 168.325 18.4491 169.134 17.5435C169.959 16.6379 170.371 15.4412 170.371 13.9535C170.371 12.4496 169.959 11.2529 169.134 10.3635C168.325 9.4579 167.242 9.00511 165.884 9.00511C164.509 9.00511 163.409 9.44982 162.585 10.3392C161.776 11.2286 161.372 12.4334 161.372 13.9535C161.372 15.4574 161.776 16.6622 162.585 17.5677C163.409 18.4572 164.509 18.9019 165.884 18.9019ZM176.196 13.9777C176.196 12.2959 176.56 10.8001 177.287 9.49025C178.015 8.16421 179.026 7.13734 180.32 6.40964C181.629 5.66577 183.109 5.29383 184.758 5.29383C186.78 5.29383 188.51 5.82748 189.949 6.89477C191.389 7.96207 192.351 9.41748 192.836 11.261H188.276C187.936 10.5495 187.451 10.0077 186.82 9.63579C186.206 9.26385 185.502 9.07788 184.71 9.07788C183.432 9.07788 182.397 9.52259 181.605 10.412C180.813 11.3014 180.417 12.49 180.417 13.9777C180.417 15.4655 180.813 16.6541 181.605 17.5435C182.397 18.4329 183.432 18.8776 184.71 18.8776C185.502 18.8776 186.206 18.6916 186.82 18.3197C187.451 17.9478 187.936 17.406 188.276 16.6945H192.836C192.351 18.538 191.389 19.9934 189.949 21.0607C188.51 22.1118 186.78 22.6374 184.758 22.6374C183.109 22.6374 181.629 22.2735 180.32 21.5458C179.026 20.802 178.015 19.7751 177.287 18.4652C176.56 17.1554 176.196 15.6595 176.196 13.9777ZM205.249 22.5161L199.524 14.9965V22.5161H195.376V5.48788H199.524V12.959L205.2 5.48788H210.076L203.478 13.8322L210.318 22.5161H205.249ZM57.1569 31.8186C57.1569 32.4763 57.0059 33.08 56.7041 33.6298C56.4022 34.1689 55.9386 34.6055 55.3134 34.9397C54.6881 35.2739 53.9119 35.441 52.9847 35.441H51.2706V39.5161H48.5053V28.164H52.9847C53.8903 28.164 54.6557 28.3203 55.281 28.6329C55.9063 28.9456 56.3753 29.3768 56.6879 29.9266C57.0005 30.4764 57.1569 31.1071 57.1569 31.8186ZM52.7745 33.2417C53.3027 33.2417 53.6962 33.1177 53.955 32.8698C54.2137 32.6218 54.3431 32.2714 54.3431 31.8186C54.3431 31.3658 54.2137 31.0155 53.955 30.7675C53.6962 30.5196 53.3027 30.3956 52.7745 30.3956H51.2706V33.2417H52.7745ZM72.6816 37.3815H76.3039V39.5161H69.9163V28.164H72.6816V37.3815ZM91.6594 28.164V34.9558C91.6594 35.635 91.8265 36.1579 92.1607 36.5244C92.4949 36.891 92.9855 37.0743 93.6323 37.0743C94.2792 37.0743 94.7751 36.891 95.1201 36.5244C95.465 36.1579 95.6375 35.635 95.6375 34.9558V28.164H98.4028V34.9397C98.4028 35.9531 98.1872 36.8101 97.7559 37.5109C97.3247 38.2116 96.7426 38.7399 96.0095 39.0957C95.2872 39.4514 94.4786 39.6293 93.5838 39.6293C92.689 39.6293 91.8858 39.4568 91.1743 39.1118C90.4735 38.7561 89.9183 38.2278 89.5087 37.5271C89.099 36.8155 88.8942 35.9531 88.8942 34.9397V28.164H91.6594ZM124.52 28.164V39.5161H121.755V32.7081L119.216 39.5161H116.985L114.43 32.6919V39.5161H111.664V28.164H114.931L118.117 36.0231L121.27 28.164H124.52ZM144.702 33.6945C145.359 33.8346 145.887 34.1635 146.286 34.6809C146.685 35.1876 146.885 35.7698 146.885 36.4274C146.885 37.3761 146.55 38.1308 145.882 38.6914C145.224 39.2412 144.303 39.5161 143.117 39.5161H137.829V28.164H142.939C144.092 28.164 144.993 28.4281 145.64 28.9563C146.297 29.4846 146.626 30.2015 146.626 31.1071C146.626 31.7755 146.448 32.3307 146.092 32.7727C145.747 33.2148 145.284 33.522 144.702 33.6945ZM140.594 32.7566H142.405C142.858 32.7566 143.203 32.6595 143.44 32.4655C143.688 32.2607 143.812 31.9642 143.812 31.5761C143.812 31.188 143.688 30.8915 143.44 30.6867C143.203 30.4818 142.858 30.3794 142.405 30.3794H140.594V32.7566ZM142.632 37.2845C143.095 37.2845 143.451 37.1821 143.699 36.9772C143.958 36.7616 144.087 36.4544 144.087 36.0555C144.087 35.6566 143.952 35.344 143.683 35.1176C143.424 34.8912 143.063 34.778 142.599 34.778H140.594V37.2845H142.632ZM162.574 28.164V39.5161H159.808V28.164H162.574ZM186.053 39.5161H183.288L178.663 32.514V39.5161H175.897V28.164H178.663L183.288 35.1984V28.164H186.053V39.5161ZM206.913 31.754C206.708 31.3766 206.412 31.0909 206.024 30.8969C205.646 30.6921 205.199 30.5896 204.681 30.5896C203.786 30.5896 203.07 30.8861 202.531 31.479C201.991 32.0612 201.722 32.8428 201.722 33.8239C201.722 34.8696 202.002 35.6889 202.563 36.2819C203.134 36.864 203.916 37.1551 204.908 37.1551C205.587 37.1551 206.158 36.9826 206.622 36.6376C207.096 36.2927 207.441 35.7967 207.657 35.1499H204.148V33.1123H210.163V35.6835C209.958 36.3735 209.608 37.015 209.112 37.6079C208.627 38.2009 208.007 38.6806 207.253 39.0471C206.498 39.4137 205.646 39.597 204.697 39.597C203.576 39.597 202.574 39.3544 201.69 38.8693C200.816 38.3734 200.132 37.6888 199.636 36.8155C199.151 35.9423 198.908 34.9451 198.908 33.8239C198.908 32.7027 199.151 31.7054 199.636 30.8322C200.132 29.9482 200.816 29.2636 201.69 28.7785C202.563 28.2825 203.56 28.0346 204.681 28.0346C206.04 28.0346 207.182 28.3634 208.11 29.021C209.048 29.6787 209.667 30.5896 209.969 31.754H206.913Z" fill="white"/>
<g clip-path="url(#clip0_552_50600)">
<path d="M1.54416 7.74088H3.06499V9.25945C3.06543 9.66846 3.22835 10.0606 3.51799 10.3498C3.80764 10.639 4.20036 10.8017 4.60998 10.8021H6.20744C6.61706 10.8017 7.00978 10.639 7.29942 10.3498C7.58907 10.0606 7.75199 9.66846 7.75243 9.25945V7.74088H9.27326C9.68282 7.74022 10.0754 7.57747 10.365 7.28831C10.6546 6.99914 10.8176 6.60714 10.8183 6.19819V4.60311C10.8176 4.19417 10.6546 3.80216 10.365 3.513C10.0754 3.22383 9.68282 3.06108 9.27326 3.06042H7.75243V1.54269C7.75199 1.13368 7.58907 0.741543 7.29942 0.452329C7.00978 0.163114 6.61706 0.00044027 6.20744 0L4.60998 0C4.20036 0.00044027 3.80764 0.163114 3.51799 0.452329C3.22835 0.741543 3.06543 1.13368 3.06499 1.54269V3.06042H1.54416C1.13468 3.06108 0.742175 3.22386 0.452709 3.51305C0.163243 3.80224 0.000440475 4.19424 0 4.60311V6.19819C0.000440475 6.60706 0.163243 6.99907 0.452709 7.28826C0.742175 7.57745 1.13468 7.74022 1.54416 7.74088V7.74088ZM1.18019 4.60311C1.18063 4.50701 1.21917 4.415 1.28738 4.34721C1.35559 4.27941 1.44791 4.24135 1.54416 4.24135H4.24768V1.54269C4.24768 1.44622 4.286 1.3537 4.35423 1.28541C4.42246 1.21712 4.51504 1.17865 4.61164 1.17843H6.20744C6.30405 1.17865 6.39662 1.21712 6.46485 1.28541C6.53309 1.3537 6.57141 1.44622 6.57141 1.54269V4.24135H9.27326C9.32106 4.24135 9.36839 4.25075 9.41255 4.26901C9.45671 4.28728 9.49683 4.31405 9.53063 4.34779C9.56442 4.38154 9.59123 4.42161 9.60952 4.4657C9.62782 4.50979 9.63723 4.55705 9.63723 4.60477V6.19819C9.63723 6.29465 9.59891 6.38718 9.53068 6.45547C9.46244 6.52375 9.36987 6.56223 9.27326 6.56245H6.57141V9.25945C6.57141 9.30717 6.56199 9.35443 6.5437 9.39853C6.52541 9.44262 6.4986 9.48268 6.4648 9.51643C6.43101 9.55018 6.39088 9.57695 6.34672 9.59521C6.30256 9.61347 6.25524 9.62287 6.20744 9.62287H4.60998C4.51374 9.62243 4.42159 9.58395 4.35369 9.51584C4.28579 9.44773 4.24768 9.35555 4.24768 9.25945V6.56245H1.54416C1.44755 6.56223 1.35497 6.52375 1.28674 6.45547C1.21851 6.38718 1.18019 6.29465 1.18019 6.19819V4.60311Z" fill="white"/>
<path d="M40.428 18.4789L35.4099 16.3765V18.2061C35.3828 18.1978 35.3548 18.1933 35.3266 18.1928H31.9584V14.3573C31.9582 14.0236 31.8254 13.7037 31.5891 13.4678C31.3528 13.2318 31.0324 13.0992 30.6983 13.099H28.2396C27.9055 13.0994 27.5853 13.2321 27.349 13.468C27.1128 13.7039 26.9799 14.0237 26.9795 14.3573V14.3739H24.2851C21.6493 14.377 19.1223 15.4239 17.2584 17.2849C15.3946 19.146 14.3461 21.6692 14.343 24.3011V29.0648H14.3256C13.9915 29.0652 13.6712 29.1979 13.435 29.4338C13.1988 29.6697 13.0659 29.9895 13.0654 30.323V32.7473C13.0659 33.0808 13.1988 33.4006 13.435 33.6365C13.6712 33.8724 13.9915 34.0051 14.3256 34.0055H14.3397V34.038C14.3393 34.4869 14.1605 34.9173 13.8426 35.2348C13.5246 35.5522 13.0936 35.7307 12.644 35.7312H11.2281C10.7785 35.7307 10.3474 35.5522 10.0295 35.2348C9.71159 34.9173 9.53279 34.4869 9.53235 34.038H9.54567C9.87975 34.0375 10.2 33.9048 10.4362 33.6689C10.6725 33.4331 10.8054 33.1133 10.8058 32.7797V30.3546C10.8054 30.0211 10.6725 29.7013 10.4362 29.4654C10.2 29.2295 9.87975 29.0968 9.54567 29.0964H9.53235V17.7503H9.54567C9.87975 17.7499 10.2 17.6172 10.4362 17.3813C10.6725 17.1454 10.8054 16.8256 10.8058 16.4921V14.0371C10.8056 13.7034 10.6728 13.3835 10.4365 13.1476C10.2002 12.9117 9.87982 12.779 9.54567 12.7788H1.27186C0.93772 12.779 0.617325 12.9117 0.38105 13.1476C0.144775 13.3835 0.0119394 13.7034 0.0117188 14.0371V16.4921C0.0121595 16.8256 0.145066 17.1454 0.381293 17.3813C0.617521 17.6172 0.937787 17.7499 1.27186 17.7503H1.28519V29.0964H1.27186C0.937787 29.0968 0.617521 29.2295 0.381293 29.4654C0.145066 29.7013 0.0121595 30.0211 0.0117188 30.3546V32.7789C0.0121595 33.1124 0.145066 33.4322 0.381293 33.6681C0.617521 33.904 0.937787 34.0367 1.27186 34.0371H1.28519C1.28806 36.6693 2.33653 39.1929 4.20056 41.0542C6.0646 42.9154 8.59194 43.9623 11.2281 43.9652H12.644C15.2804 43.963 17.8083 42.9165 19.6728 41.0554C21.5374 39.1942 22.5863 36.6705 22.5894 34.038V34.0055H22.6019C22.936 34.0053 23.2564 33.8727 23.4927 33.6367C23.729 33.4008 23.8618 33.0809 23.862 32.7473V30.323C23.8618 29.9894 23.729 29.6695 23.4927 29.4335C23.2564 29.1976 22.936 29.065 22.6019 29.0648H22.5894V24.3011C22.59 23.8523 22.7689 23.422 23.0868 23.1046C23.4046 22.7872 23.8356 22.6086 24.2851 22.6079H26.9795V22.6204C26.9793 22.6741 26.9829 22.7277 26.9903 22.7809C27.0295 23.0842 27.178 23.3628 27.4078 23.5648C27.6377 23.7668 27.9334 23.8784 28.2396 23.8787H30.6983C31.0324 23.8785 31.3528 23.7458 31.5891 23.5099C31.8254 23.274 31.9582 22.9541 31.9584 22.6204V18.7857H35.3224C35.3507 18.7852 35.3787 18.7807 35.4057 18.7724V20.5812L40.428 18.4789ZM15.5249 24.3003C15.5275 21.9811 16.4513 19.7576 18.0935 18.1175C19.7358 16.4774 21.9624 15.5546 24.2851 15.5515H26.9795V18.1961H24.2851C22.6641 18.1979 21.1099 18.8416 19.9637 19.9862C18.8175 21.1307 18.1727 22.6825 18.171 24.3011V29.0648H15.5232L15.5249 24.3003ZM11.2281 36.9096H12.644C13.4065 36.9087 14.1374 36.6059 14.6766 36.0675C15.2157 35.5292 15.519 34.7993 15.5199 34.038V34.0055H18.1676V34.038C18.1661 35.5003 17.5836 36.9022 16.5481 37.9362C15.5125 38.9703 14.1085 39.5518 12.644 39.5534H11.2281C9.76352 39.5518 8.35937 38.9703 7.32369 37.9363C6.288 36.9023 5.70537 35.5003 5.70361 34.038H8.35132C8.35221 34.7994 8.6556 35.5295 9.19493 36.0678C9.73426 36.6062 10.4655 36.9089 11.2281 36.9096V36.9096ZM8.35132 29.0964H5.70361V17.7503H8.35132V29.0964ZM1.19274 16.4921V14.0371C1.19271 14.0157 1.20091 13.9952 1.21564 13.9797C1.23037 13.9642 1.2505 13.955 1.27186 13.9539H9.54567C9.56776 13.9539 9.58895 13.9627 9.60457 13.9783C9.62019 13.9939 9.62896 14.015 9.62896 14.0371V16.4921C9.62789 16.5134 9.61865 16.5335 9.60314 16.5482C9.58764 16.5629 9.56706 16.5711 9.54567 16.5711H1.27186C1.2512 16.5701 1.23166 16.5614 1.21703 16.5468C1.20241 16.5322 1.19375 16.5127 1.19274 16.4921ZM2.46621 17.7503H5.11393V29.0964H2.46621V17.7503ZM1.27186 32.8579C1.2505 32.8568 1.23037 32.8476 1.21564 32.8321C1.20091 32.8166 1.19271 32.7961 1.19274 32.7747V30.3546C1.19375 30.334 1.20241 30.3145 1.21703 30.2999C1.23166 30.2853 1.2512 30.2766 1.27186 30.2756H9.54567C9.56706 30.2756 9.58764 30.2838 9.60314 30.2985C9.61865 30.3132 9.62789 30.3333 9.62896 30.3546V32.7789C9.62896 32.8009 9.62019 32.8221 9.60457 32.8377C9.58895 32.8533 9.56776 32.862 9.54567 32.862H1.27186V32.8579ZM21.4092 34.038C21.4065 36.3575 20.4826 38.5812 18.84 40.2214C17.1974 41.8615 14.9703 42.7841 12.6473 42.7868H11.2314C8.90844 42.7841 6.68135 41.8615 5.03876 40.2214C3.39616 38.5812 2.47219 36.3575 2.46954 34.038H5.11393C5.11569 35.6566 5.76043 37.2084 6.90667 38.3529C8.05292 39.4975 9.60705 40.1412 11.2281 40.143H12.644C14.265 40.1412 15.8191 39.4975 16.9654 38.3529C18.1116 37.2084 18.7564 35.6566 18.7581 34.038V34.0055H21.4059L21.4092 34.038ZM22.6019 30.244C22.6233 30.244 22.6438 30.2522 22.6593 30.2669C22.6748 30.2816 22.6841 30.3017 22.6852 30.323V32.7473C22.6852 32.7693 22.6764 32.7905 22.6608 32.8061C22.6451 32.8217 22.624 32.8304 22.6019 32.8304H14.3256C14.3042 32.8294 14.2841 32.8201 14.2693 32.8046C14.2546 32.7892 14.2464 32.7686 14.2464 32.7473V30.323C14.2474 30.3024 14.2561 30.2829 14.2707 30.2683C14.2854 30.2537 14.3049 30.245 14.3256 30.244H22.5985H22.6019ZM24.2851 21.4287C23.5226 21.4296 22.7916 21.7324 22.2525 22.2707C21.7133 22.8091 21.4101 23.539 21.4092 24.3003V29.0639H18.7615V24.3011C18.763 22.8388 19.3455 21.4369 20.381 20.4029C21.4166 19.3688 22.8206 18.7873 24.2851 18.7857H26.9795V21.4295L24.2851 21.4287ZM30.7816 22.6171C30.7816 22.6391 30.7728 22.6603 30.7572 22.6759C30.7415 22.6915 30.7204 22.7002 30.6983 22.7002H28.2396C28.2183 22.6992 28.1981 22.6899 28.1834 22.6745C28.1687 22.659 28.1605 22.6384 28.1605 22.6171V14.3573C28.1615 14.3366 28.1702 14.3171 28.1848 14.3025C28.1994 14.2879 28.219 14.2793 28.2396 14.2783H30.6983C30.7197 14.2782 30.7402 14.2864 30.7557 14.3011C30.7712 14.3158 30.7805 14.3359 30.7816 14.3573V22.6204V22.6171ZM36.5934 18.1487L37.3796 18.4813L36.5934 18.814V18.1487Z" fill="white"/>
<path d="M5.40885 15.8843C5.44764 15.8843 5.48605 15.8767 5.52188 15.8619C5.5577 15.847 5.59024 15.8252 5.61763 15.7978C5.64502 15.7704 5.66672 15.7378 5.68149 15.702C5.69626 15.6662 5.7038 15.6278 5.70369 15.5891V14.9463C5.70369 14.8682 5.67263 14.7933 5.61734 14.7381C5.56204 14.6829 5.48705 14.6519 5.40885 14.6519C5.33066 14.6519 5.25566 14.6829 5.20037 14.7381C5.14508 14.7933 5.11401 14.8682 5.11401 14.9463V15.5891C5.11391 15.6278 5.12145 15.6662 5.13622 15.702C5.15099 15.7378 5.17269 15.7704 5.20008 15.7978C5.22747 15.8252 5.26001 15.847 5.29583 15.8619C5.33166 15.8767 5.37007 15.8843 5.40885 15.8843Z" fill="white"/>
<path d="M3.03497 15.8843C3.07415 15.8844 3.11296 15.8768 3.14915 15.8618C3.18534 15.8468 3.21818 15.8247 3.24577 15.797C3.27336 15.7692 3.29514 15.7362 3.30986 15.7C3.32457 15.6637 3.33192 15.6249 3.33148 15.5858V14.9429C3.32746 14.8674 3.2946 14.7963 3.23967 14.7443C3.18474 14.6923 3.11192 14.6633 3.03622 14.6633C2.96052 14.6633 2.8877 14.6923 2.83277 14.7443C2.77784 14.7963 2.74498 14.8674 2.74097 14.9429V15.5858C2.741 15.6622 2.77088 15.7356 2.82425 15.7903C2.8513 15.8193 2.88389 15.8425 2.92008 15.8586C2.95627 15.8748 2.99534 15.8835 3.03497 15.8843V15.8843Z" fill="white"/>
<path d="M7.78255 15.8843C7.82261 15.8838 7.86215 15.8753 7.89879 15.8591C7.93544 15.843 7.96843 15.8196 7.99577 15.7903C8.04914 15.7356 8.07902 15.6622 8.07906 15.5858V14.9429C8.07504 14.8674 8.04218 14.7963 7.98725 14.7443C7.93232 14.6923 7.8595 14.6633 7.7838 14.6633C7.7081 14.6633 7.63528 14.6923 7.58035 14.7443C7.52542 14.7963 7.49256 14.8674 7.48854 14.9429V15.5858C7.4881 15.6247 7.49537 15.6633 7.50993 15.6994C7.52449 15.7355 7.54605 15.7683 7.57337 15.7961C7.60069 15.8238 7.63324 15.8459 7.66914 15.861C7.70504 15.8762 7.74358 15.8841 7.78255 15.8843V15.8843Z" fill="white"/>
<path d="M5.40885 32.1511C5.4476 32.1512 5.48599 32.1437 5.52181 32.1289C5.55763 32.1141 5.59018 32.0925 5.61758 32.0651C5.64498 32.0377 5.6667 32.0052 5.68147 31.9695C5.69625 31.9337 5.7038 31.8954 5.70369 31.8567V31.2138C5.70369 31.1358 5.67263 31.0609 5.61734 31.0057C5.56204 30.9504 5.48705 30.9194 5.40885 30.9194C5.33066 30.9194 5.25566 30.9504 5.20037 31.0057C5.14508 31.0609 5.11401 31.1358 5.11401 31.2138V31.8567C5.1139 31.8954 5.12146 31.9337 5.13623 31.9695C5.15101 32.0052 5.17273 32.0377 5.20013 32.0651C5.22753 32.0925 5.26007 32.1141 5.29589 32.1289C5.33172 32.1437 5.3701 32.1512 5.40885 32.1511V32.1511Z" fill="white"/>
<path d="M3.03497 32.1511C3.07383 32.1514 3.11235 32.1439 3.14831 32.1292C3.18428 32.1145 3.21698 32.0929 3.24453 32.0655C3.27209 32.0381 3.29395 32.0056 3.30888 31.9698C3.3238 31.934 3.33148 31.8955 3.33148 31.8567V31.2139C3.32746 31.1384 3.2946 31.0673 3.23967 31.0153C3.18474 30.9633 3.11192 30.9343 3.03622 30.9343C2.96052 30.9343 2.8877 30.9633 2.83277 31.0153C2.77784 31.0673 2.74498 31.1384 2.74097 31.2139V31.8567C2.74097 31.9347 2.77192 32.0094 2.82703 32.0646C2.88214 32.1198 2.95692 32.1509 3.03497 32.1511V32.1511Z" fill="white"/>
<path d="M7.78253 32.1511C7.82139 32.1514 7.85991 32.1439 7.89587 32.1292C7.93184 32.1145 7.96454 32.0929 7.99209 32.0655C8.01965 32.0381 8.04151 32.0056 8.05643 31.9698C8.07136 31.934 8.07904 31.8955 8.07904 31.8567V31.2139C8.07502 31.1384 8.04216 31.0673 7.98723 31.0153C7.9323 30.9633 7.85948 30.9343 7.78378 30.9343C7.70808 30.9343 7.63526 30.9633 7.58033 31.0153C7.5254 31.0673 7.49254 31.1384 7.48853 31.2139V31.8567C7.48853 31.9347 7.51947 32.0094 7.57459 32.0646C7.6297 32.1198 7.70448 32.1509 7.78253 32.1511Z" fill="white"/>
<path d="M18.4658 30.9194C18.3901 30.9191 18.3172 30.948 18.2622 31.0001C18.2073 31.0521 18.1746 31.1233 18.171 31.1989C18.1706 31.2038 18.1706 31.2089 18.171 31.2138V31.8567C18.1706 31.8617 18.1706 31.8667 18.171 31.8717C18.173 31.9497 18.2059 32.0238 18.2626 32.0776C18.3193 32.1314 18.3951 32.1606 18.4733 32.1586C18.5515 32.1566 18.6257 32.1237 18.6796 32.067C18.7335 32.0104 18.7626 31.9348 18.7606 31.8567V31.2138C18.7606 31.1752 18.753 31.1369 18.7382 31.1012C18.7234 31.0655 18.7017 31.033 18.6743 31.0057C18.6469 30.9783 18.6144 30.9566 18.5786 30.9418C18.5429 30.9271 18.5045 30.9194 18.4658 30.9194V30.9194Z" fill="white"/>
<path d="M16.0912 30.9194C16.0525 30.9194 16.0142 30.927 15.9784 30.9418C15.9426 30.9566 15.9101 30.9783 15.8827 31.0057C15.8554 31.033 15.8336 31.0655 15.8188 31.1012C15.804 31.1369 15.7964 31.1752 15.7964 31.2138V31.8567C15.8004 31.9322 15.8333 32.0032 15.8882 32.0553C15.9431 32.1073 16.0159 32.1363 16.0916 32.1363C16.1673 32.1363 16.2402 32.1073 16.2951 32.0553C16.35 32.0032 16.3829 31.9322 16.3869 31.8567V31.2138C16.3869 31.1751 16.3792 31.1368 16.3644 31.101C16.3495 31.0652 16.3277 31.0327 16.3002 31.0054C16.2728 30.978 16.2402 30.9563 16.2043 30.9416C16.1684 30.9269 16.13 30.9193 16.0912 30.9194Z" fill="white"/>
<path d="M20.8395 30.9194C20.8008 30.9194 20.7625 30.927 20.7267 30.9418C20.6909 30.9566 20.6584 30.9783 20.631 31.0057C20.6037 31.033 20.5819 31.0655 20.5671 31.1012C20.5523 31.1369 20.5447 31.1752 20.5447 31.2138V31.8567C20.5487 31.9322 20.5816 32.0032 20.6365 32.0553C20.6914 32.1073 20.7642 32.1363 20.8399 32.1363C20.9156 32.1363 20.9884 32.1073 21.0434 32.0553C21.0983 32.0032 21.1312 31.9322 21.1352 31.8567V31.2138C21.1352 31.1751 21.1275 31.1368 21.1127 31.101C21.0978 31.0652 21.076 31.0327 21.0485 31.0054C21.0211 30.978 20.9885 30.9563 20.9526 30.9416C20.9167 30.9269 20.8783 30.9193 20.8395 30.9194V30.9194Z" fill="white"/>
<path d="M29.8329 18.1963C29.8191 18.195 29.8051 18.195 29.7913 18.1963H29.1508C29.1369 18.195 29.123 18.195 29.1092 18.1963C29.0392 18.2107 28.9769 18.25 28.9338 18.3069C28.8906 18.3638 28.8697 18.4344 28.8748 18.5055C28.8799 18.5767 28.9107 18.6436 28.9614 18.6938C29.0122 18.744 29.0795 18.774 29.1508 18.7784H29.7946C29.8659 18.774 29.9332 18.744 29.984 18.6938C30.0348 18.6436 30.0655 18.5767 30.0706 18.5055C30.0757 18.4344 30.0548 18.3638 30.0117 18.3069C29.9685 18.25 29.9062 18.2107 29.8363 18.1963H29.8329Z" fill="white"/>
<path d="M29.9061 20.5862C29.8698 20.5708 29.8307 20.5628 29.7912 20.5629H29.1507C29.1106 20.5608 29.0705 20.5668 29.0328 20.5807C28.9952 20.5945 28.9607 20.6159 28.9316 20.6435C28.9024 20.6711 28.8792 20.7043 28.8634 20.7411C28.8475 20.778 28.8394 20.8176 28.8394 20.8577C28.8394 20.8978 28.8475 20.9375 28.8634 20.9743C28.8792 21.0112 28.9024 21.0444 28.9316 21.072C28.9607 21.0995 28.9952 21.1209 29.0328 21.1348C29.0705 21.1486 29.1106 21.1547 29.1507 21.1525H29.7945C29.8333 21.1525 29.8717 21.1449 29.9076 21.1301C29.9434 21.1152 29.9759 21.0935 30.0033 21.066C30.0307 21.0386 30.0524 21.006 30.0672 20.9702C30.0819 20.9344 30.0895 20.896 30.0894 20.8573C30.0893 20.8291 30.0851 20.8011 30.0769 20.7742C30.0642 20.7321 30.0423 20.6934 30.0128 20.6609C29.9832 20.6284 29.9468 20.6029 29.9061 20.5862V20.5862Z" fill="white"/>
<path d="M29.7911 15.8218H29.1507C29.0985 15.8218 29.0472 15.8358 29.0024 15.8625C28.9582 15.8877 28.9214 15.924 28.8955 15.9677C28.8697 16.0115 28.8557 16.0612 28.855 16.112C28.855 16.1903 28.8861 16.2654 28.9416 16.3208C28.997 16.3762 29.0722 16.4073 29.1507 16.4073H29.7945C29.8701 16.4032 29.9412 16.3704 29.9933 16.3156C30.0454 16.2607 30.0744 16.188 30.0744 16.1124C30.0744 16.0369 30.0454 15.9641 29.9933 15.9093C29.9412 15.8544 29.8701 15.8216 29.7945 15.8176L29.7911 15.8218Z" fill="white"/>
</g>
<defs>
<clipPath id="clip0_552_50600">
<rect width="40.4279" height="43.9653" fill="white"/>
</clipPath>
</defs>
</svg>
